<?xml version="1.0" encoding="UTF-8"?>
<svg id="Layer_1" xmlns="http://www.w3.org/2000/svg" version="1.1" viewBox="0 0 100 120.26">
  <!-- Generator: Adobe Illustrator 30.4.0, SVG Export Plug-In . SVG Version: 2.1.4 Build 226)  -->
  <defs>
    <style>
      .st0 {
        fill: #2c5bff;
      }
    </style>
  </defs>
  <path class="st0" d="M98.36,4.56c-.04.62-.29,1.24-.77,1.82-1.14,1.35-2.7,2.23-3.9,3.5-1.37,1.44-2.67,2.96-4.01,4.43-3.05,3.32-6.16,6.57-9.31,9.78-6.32,6.44-12.8,12.72-19.22,19.05-2.44,2.4-4.86,4.81-7.27,7.24-6.22,6.27-12.44,12.54-18.67,18.81-7.48,7.54-15.62,14.42-14.57,26.07.68,7.51,4.83,13.79,11.25,17.68-12.07-7.33-21.48-18.39-27.78-31.12-7.72-15.61-3.78-31.57,5.43-45.68,7.22-11.07,16.63-22.28,28.02-29.2C46.18,1.69,56.39.21,66.33.03c8.18-.15,16.41.37,24.59.6,2.52.07,7.69.24,7.44,3.94Z"/>
  <path class="st0" d="M70.4,67.54c-5.72,6.34-11.72,12.43-17.76,18.47-2.97,2.97-5.95,5.93-8.92,8.9-2.44,2.45-5.85,4.92-7.32,8.11-.48,1.04-.74,2.18-.86,3.32-.82,8.24,7.12,13.4,14.55,13.53,9.33.16,18.66.23,27.99.29,4.66.03,9.31.03,13.97.09,3.38.04,10.06-2.57,7.27-7.07-10.01-10.65-20.01-21.3-30.02-31.94-2.98-3.17-4.67-5.33-2.13-9.61.89-1.5,2.06-2.8,3.23-4.1Z"/>
</svg>