<?xml version="1.0" encoding="UTF-8"?>
<svg id="Layer_1" xmlns="http://www.w3.org/2000/svg" version="1.1" viewBox="0 0 372.46 84.3">
  <!-- Generator: Adobe Illustrator 30.4.0, SVG Export Plug-In . SVG Version: 2.1.4 Build 226)  -->
  <defs>
    <style>
      .st0 {
        fill: #2c5bff;
      }

      .st1 {
        fill: #fff;
      }
    </style>
  </defs>
  <g>
    <path class="st1" d="M30.17,64.58c-4.27,0-8.21-.78-11.84-2.33-3.63-1.56-6.83-3.72-9.6-6.48-2.77-2.77-4.91-5.98-6.44-9.64-1.53-3.66-2.29-7.59-2.29-11.8s.76-8.21,2.29-11.84c1.53-3.63,3.67-6.83,6.44-9.6,2.77-2.77,5.97-4.93,9.6-6.48,3.63-1.56,7.58-2.33,11.84-2.33,3.34,0,6.6.58,9.77,1.73,3.17,1.15,6.01,2.8,8.52,4.93,2.51,2.13,4.45,4.73,5.84,7.78l-10.29,5.79c-1.44-2.54-3.32-4.54-5.62-6.01-2.31-1.47-5.22-2.2-8.73-2.2-2.42,0-4.66.45-6.7,1.34-2.05.89-3.82,2.16-5.32,3.8-1.5,1.64-2.65,3.57-3.46,5.79-.81,2.22-1.21,4.66-1.21,7.31s.4,5.01,1.21,7.26c.81,2.25,1.95,4.19,3.41,5.84,1.47,1.64,3.24,2.91,5.32,3.8,2.08.89,4.32,1.34,6.74,1.34,3.52,0,6.44-.75,8.78-2.25,2.33-1.5,4.19-3.49,5.58-5.97l10.29,5.79c-1.38,3.06-3.33,5.65-5.84,7.78-2.51,2.13-5.35,3.78-8.52,4.93-3.17,1.15-6.43,1.73-9.77,1.73Z"/>
    <path class="st1" d="M72.97,63.37h-12.28v-24.55c0-3.69.69-6.99,2.08-9.9,1.38-2.91,3.49-5.22,6.31-6.92,2.82-1.7,6.34-2.55,10.55-2.55,1.44,0,2.85.13,4.24.39,1.38.26,2.62.62,3.72,1.08v11.93c-1.04-.63-2.16-1.09-3.37-1.38-1.21-.29-2.36-.43-3.46-.43-2.42,0-4.32.73-5.71,2.2-1.38,1.47-2.08,3.47-2.08,6.01v24.12Z"/>
    <path class="st1" d="M112.57,64.5c-4.15,0-7.81-1.02-10.98-3.07-3.17-2.05-5.66-4.78-7.48-8.21-1.82-3.43-2.72-7.22-2.72-11.37s1.02-7.85,3.07-11.28c2.05-3.43,4.81-6.17,8.3-8.21,3.49-2.05,7.42-3.07,11.8-3.07s8.41.99,11.93,2.98c3.52,1.99,6.28,4.67,8.3,8.04,2.02,3.37,3.03,7.22,3.03,11.54v21.53h-11.67v-15.48l3.72-1.04c0,3.34-.72,6.35-2.16,9.03-1.44,2.68-3.43,4.78-5.97,6.31-2.54,1.53-5.59,2.29-9.16,2.29ZM114.56,53c2.13,0,4.02-.5,5.66-1.51,1.64-1.01,2.94-2.35,3.89-4.02.95-1.67,1.43-3.52,1.43-5.53s-.48-3.86-1.43-5.53c-.95-1.67-2.25-3.01-3.89-4.02-1.64-1.01-3.53-1.51-5.66-1.51s-3.93.5-5.58,1.51c-1.64,1.01-2.94,2.35-3.89,4.02-.95,1.67-1.43,3.52-1.43,5.53s.48,3.86,1.43,5.53c.95,1.67,2.25,3.01,3.89,4.02,1.64,1.01,3.5,1.51,5.58,1.51Z"/>
    <path class="st1" d="M178.62,30.95h-33.55v-10.38h33.55v10.38ZM164.96,63.37h-12.28V18.33c0-3.46.69-6.57,2.07-9.34,1.38-2.77,3.46-4.96,6.23-6.57,2.77-1.61,6.23-2.42,10.37-2.42,1.44,0,2.85.13,4.24.39,1.38.26,2.62.62,3.72,1.08v11.33c-.98-.63-2.07-1.09-3.29-1.38-1.21-.29-2.39-.43-3.54-.43-2.31,0-4.14.59-5.49,1.77-1.35,1.18-2.03,2.98-2.03,5.4v45.22Z"/>
    <path class="st1" d="M216.66,30.95h-35.27v-10.38h35.27v10.38ZM207.76,64.58c-4.09,0-7.51-.76-10.25-2.29-2.74-1.53-4.8-3.66-6.18-6.4-1.38-2.74-2.07-5.89-2.07-9.47V9.68h12.28v36.4c0,2.36.66,4.21,1.99,5.53,1.33,1.33,3.11,1.99,5.36,1.99,1.27,0,2.62-.17,4.06-.52,1.44-.35,2.68-.86,3.72-1.56v10.98c-1.1.64-2.46,1.14-4.11,1.51-1.64.37-3.24.56-4.8.56Z"/>
    <path class="st1" d="M227.21.86h12.28v62.51h-12.28V.86Z"/>
    <path class="st1" d="M272.17,84.3c-5.07,0-9.44-1.05-13.1-3.16-3.66-2.1-6.47-5.14-8.43-9.12l10.12-5.53c.98,1.84,2.41,3.4,4.28,4.67,1.87,1.27,4.19,1.9,6.96,1.9,2.48,0,4.57-.56,6.27-1.69,1.7-1.12,3.01-2.68,3.93-4.67.92-1.99,1.38-4.31,1.38-6.96v-6.66l2.42-.95c-.4,2.54-1.2,4.67-2.38,6.4-1.18,1.73-2.72,3.06-4.63,3.98-1.9.92-4.18,1.38-6.83,1.38-4.61,0-8.39-.92-11.33-2.77-2.94-1.84-5.12-4.39-6.53-7.65-1.41-3.26-2.12-6.99-2.12-11.2v-21.7h12.1v21.27c0,3.11.81,5.63,2.42,7.56,1.61,1.93,3.95,2.9,7,2.9,1.84,0,3.5-.46,4.97-1.38,1.47-.92,2.62-2.21,3.46-3.85.84-1.64,1.25-3.47,1.25-5.49v-21.01h12.45v38.99c0,4.96-.99,9.29-2.98,13.01s-4.76,6.6-8.3,8.65c-3.55,2.05-7.68,3.07-12.41,3.07Z"/>
    <path class="st1" d="M306.06,63.37l16.6-52.31c.63-2.02,1.64-3.54,3.03-4.58s3.05-1.56,5.01-1.56,3.63.52,5.01,1.56c1.38,1.04,2.39,2.57,3.03,4.58l16.51,52.31h-3.11l-16.17-51.36c-.81-2.77-2.57-4.15-5.27-4.15s-4.5,1.38-5.36,4.15l-16.17,51.36h-3.11ZM347.73,45.74l-34.24.09v-2.94h34.24v2.85Z"/>
    <path class="st1" d="M369.87,10.38c-.46,0-.89-.11-1.3-.35-.4-.23-.72-.56-.95-.99-.23-.43-.35-.91-.35-1.43s.12-.98.35-1.38c.23-.4.55-.72.95-.95.4-.23.83-.35,1.3-.35.52,0,.96.12,1.34.35.37.23.68.55.91.95.23.4.35.86.35,1.38s-.12.99-.35,1.43c-.23.43-.53.76-.91.99-.38.23-.82.35-1.34.35ZM368.4,21.7h3.03v41.67h-3.03V21.7Z"/>
  </g>
  <g>
    <path class="st0" d="M-63.48-40.6c-.04.62-.29,1.24-.77,1.82-1.14,1.35-2.7,2.23-3.9,3.5-1.37,1.44-2.67,2.96-4.01,4.43-3.05,3.32-6.16,6.57-9.31,9.78-6.32,6.44-12.8,12.72-19.22,19.05-2.44,2.4-4.86,4.81-7.27,7.24-6.22,6.27-12.44,12.54-18.67,18.81-7.48,7.54-15.62,14.42-14.57,26.07.68,7.51,4.83,13.79,11.25,17.68-12.07-7.33-21.48-18.39-27.78-31.12-7.72-15.61-3.78-31.57,5.43-45.68,7.22-11.07,16.63-22.28,28.02-29.2,8.63-5.25,18.84-6.73,28.78-6.91,8.18-.15,16.41.37,24.59.6,2.52.07,7.69.24,7.44,3.94Z"/>
    <path class="st0" d="M-91.44,22.38c-5.72,6.34-11.72,12.43-17.76,18.47-2.97,2.97-5.95,5.93-8.92,8.9-2.44,2.45-5.85,4.92-7.32,8.11-.48,1.04-.74,2.18-.86,3.32-.82,8.24,7.12,13.4,14.55,13.53,9.33.16,18.66.23,27.99.29,4.66.03,9.31.03,13.97.09,3.38.04,10.06-2.57,7.27-7.07-10.01-10.65-20.01-21.3-30.02-31.94-2.98-3.17-4.67-5.33-2.13-9.61.89-1.5,2.06-2.8,3.23-4.1Z"/>
  </g>
</svg>